<svg width="16" height="16" viewBox="0 0 16 16" fill="none" xmlns="http://www.w3.org/2000/svg">
<path d="M1.49613 15.4957C1.30087 15.691 0.984287 15.691 0.789025 15.4957C0.593763 15.3004 0.593763 14.9839 0.789025 14.7886L1.49613 15.4957ZM14.9312 0.646462C15.1264 0.4512 15.443 0.4512 15.6383 0.646462C15.8335 0.841724 15.8335 1.15831 15.6383 1.35357L14.9312 0.646462ZM0.789025 14.7886L14.9312 0.646462L15.6383 1.35357L1.49613 15.4957L0.789025 14.7886Z" fill="#F44336"/>
<path d="M14.789 15.4957C14.9843 15.691 15.3009 15.691 15.4961 15.4957C15.6914 15.3004 15.6914 14.9839 15.4961 14.7886L14.789 15.4957ZM1.354 0.646462C1.15873 0.4512 0.842152 0.4512 0.646889 0.646462C0.451627 0.841724 0.451627 1.15831 0.646889 1.35357L1.354 0.646462ZM15.4961 14.7886L1.354 0.646462L0.646889 1.35357L14.789 15.4957L15.4961 14.7886Z" fill="#F44336"/>
</svg>
