<svg width="8" height="22" viewBox="0 0 8 22" fill="none" xmlns="http://www.w3.org/2000/svg">
<path d="M3.5 1C3.5 0.723858 3.72386 0.5 4 0.5C4.27614 0.5 4.5 0.723858 4.5 1L3.5 1ZM4.35355 21.3536C4.15829 21.5488 3.84171 21.5488 3.64645 21.3536L0.464465 18.1716C0.269203 17.9763 0.269203 17.6597 0.464465 17.4645C0.659728 17.2692 0.97631 17.2692 1.17157 17.4645L4 20.2929L6.82843 17.4645C7.02369 17.2692 7.34027 17.2692 7.53553 17.4645C7.7308 17.6597 7.7308 17.9763 7.53553 18.1716L4.35355 21.3536ZM4.5 1L4.5 21L3.5 21L3.5 1L4.5 1Z" fill="#03A9F4"/>
</svg>
