<svg width="40" height="40" viewBox="0 0 40 40" fill="none" xmlns="http://www.w3.org/2000/svg">
<path d="M0.5 20C0.5 9.23045 9.23045 0.5 20 0.5C30.7696 0.5 39.5 9.23045 39.5 20C39.5 30.7696 30.7696 39.5 20 39.5C9.23045 39.5 0.5 30.7696 0.5 20Z" stroke="#0F75BC"/>
<path d="M16.2878 19.3048L22.3223 13.2872C22.7062 12.9042 23.3285 12.9042 23.7122 13.2872C24.0959 13.6699 24.0959 14.2905 23.7122 14.6731L18.3726 19.9977L23.7121 25.3221C24.0958 25.7049 24.0958 26.3255 23.7121 26.7081C23.3284 27.0909 22.706 27.0909 22.3221 26.7081L16.2877 20.6905C16.0958 20.4991 16 20.2485 16 19.9977C16 19.7469 16.096 19.4961 16.2878 19.3048Z" fill="#F2F2F2"/>
</svg>
