<svg width="40" height="40" viewBox="0 0 40 40" fill="none" xmlns="http://www.w3.org/2000/svg">
<path d="M39.5 20C39.5 30.7696 30.7696 39.5 20 39.5C9.23045 39.5 0.500001 30.7695 0.500002 20C0.500003 9.23044 9.23045 0.499997 20 0.499998C30.7696 0.499999 39.5 9.23045 39.5 20Z" stroke="#0F75BC"/>
<path d="M23.7122 20.6952L17.6777 26.7128C17.2938 27.0958 16.6715 27.0958 16.2878 26.7128C15.9041 26.3301 15.9041 25.7095 16.2878 25.3269L21.6274 20.0023L16.2879 14.6779C15.9042 14.2951 15.9042 13.6745 16.2879 13.2919C16.6716 12.9091 17.294 12.9091 17.6779 13.2919L23.7123 19.3095C23.9042 19.5009 24 19.7515 24 20.0023C24 20.2531 23.904 20.5039 23.7122 20.6952Z" fill="#F2F2F2"/>
</svg>
