<svg width="56" height="46" viewBox="0 0 56 46" fill="none" xmlns="http://www.w3.org/2000/svg">
<path d="M55.9947 16.9139C55.948 15.4226 54.758 14.2221 53.2834 14.1711L52.8951 14.1663C51.9898 14.1663 49.4763 14.2551 46.3683 14.8672C45.812 10.617 44.6855 7.59939 44.5922 7.35854C44.3159 6.6379 43.7596 6.06368 43.054 5.76805C42.7106 5.6245 42.3466 5.55266 41.9826 5.55266C41.598 5.55266 41.2145 5.63291 40.8552 5.79251C40.6499 5.88416 38.3883 6.91548 35.5669 8.92535C33.0945 4.16516 30.2339 1.09652 30.0239 0.874605C29.4947 0.315442 28.7639 0 28.0005 0C27.237 0 26.5062 0.315442 25.9779 0.873609C25.7679 1.09552 22.9035 4.16893 20.4302 8.93376C17.6152 6.92954 15.351 5.88305 15.1466 5.79152C14.7873 5.63191 14.4036 5.55167 14.0192 5.55167C13.6552 5.55167 13.2912 5.62339 12.9477 5.76706C12.2422 6.06269 11.6868 6.6379 11.4096 7.35755C11.3172 7.59839 10.1906 10.615 9.63446 14.8662C6.5246 14.2532 4.01205 14.1663 3.10675 14.1663L2.71661 14.1711C1.2429 14.2221 0.051914 15.4226 0.00532031 16.9139C-0.0115234 17.4447 -0.309242 30.0129 7.41502 37.8303C14.472 44.9716 25.546 45.3333 27.6944 45.3333L27.9819 45.3296C27.9874 45.3296 27.993 45.3333 27.9987 45.3333C28.0043 45.3333 28.0099 45.3296 28.0155 45.3296L28.303 45.3333C30.4515 45.3333 41.5255 44.9716 48.5824 37.8303C56.3092 30.0138 56.0114 17.4456 55.9947 16.9139ZM41.9826 8.38522C41.9826 8.38522 43.1045 11.3585 43.6169 15.5311C41.9947 15.9911 40.3092 16.6089 38.6357 17.4352C38.2017 15.3262 37.5512 13.3494 36.7849 11.5416C39.6446 9.44489 41.9826 8.38522 41.9826 8.38522ZM14.0181 8.38522C14.0181 8.38522 16.3561 9.43924 19.2177 11.536C18.4495 13.3494 17.7962 15.3338 17.3622 17.4504C15.6888 16.6239 14.0059 15.9968 12.3829 15.5359C12.8952 11.3613 14.0181 8.38522 14.0181 8.38522ZM9.39624 35.8271C2.43913 28.787 2.80411 17.0037 2.80411 17.0037C2.80411 17.0037 2.90955 17.0008 3.10555 17.0008C4.5727 17.0008 11.1117 17.2369 16.9067 20.3961C16.8395 21.1414 16.8003 21.8979 16.8003 22.6667C16.8003 31.3889 21.4781 38.7569 24.1577 42.2656C20.1435 41.783 13.8249 40.3087 9.39624 35.8271ZM28.0619 42.4338C28.0078 42.4159 27.9546 42.3988 27.8855 42.3734C26.8999 41.2863 19.6004 32.8813 19.6004 22.6668C19.6004 11.7126 28.0003 2.83267 28.0003 2.83267C28.0003 2.83267 36.4003 11.7126 36.4003 22.6668C36.4003 33.1779 28.6872 41.7557 28.0619 42.4338ZM46.6053 35.8271C42.1766 40.3087 35.858 41.783 31.8438 42.2657C34.5225 38.757 39.2003 31.389 39.2003 22.6668C39.2003 21.8932 39.1612 21.132 39.092 20.3821C44.887 17.2257 51.4289 16.9999 52.895 16.9999C53.091 16.9999 53.1965 17.0028 53.1965 17.0028C53.1965 17.0028 53.5614 28.787 46.6053 35.8271Z" fill="#F7941E"/>
</svg>
