<svg width="58" height="56" viewBox="0 0 58 56" fill="none" xmlns="http://www.w3.org/2000/svg">
<path d="M32.9249 40.8194C33.443 40.4857 34.1335 40.6357 34.4668 41.1545C34.8001 41.6735 34.6504 42.3647 34.132 42.6983C33.9737 42.8003 33.8147 42.9073 33.6603 43.0162C33.4651 43.1535 33.2413 43.2194 33.0196 43.2194C32.6687 43.2194 32.3232 43.0541 32.1059 42.7445C31.7518 42.2398 31.8732 41.543 32.3773 41.1882C32.5568 41.062 32.741 40.9379 32.9249 40.8194Z" fill="#F7941E"/>
<path fill-rule="evenodd" clip-rule="evenodd" d="M43.1734 38.3292C49.1254 38.8916 54.3579 42.7686 56.6199 48.3508C57.2696 49.9537 57.0782 51.7715 56.1084 53.2135C55.1272 54.6726 53.4942 55.5436 51.7402 55.5436H6.25983C4.50577 55.5436 2.87283 54.6726 1.89164 53.2135C0.921759 51.7715 0.730401 49.9537 1.38006 48.3508C3.64213 42.7686 8.87456 38.8916 14.8266 38.3292C16.142 35.9211 18.0499 33.8835 20.3754 32.4094C22.6392 30.9746 25.215 30.1341 27.8844 29.9506V23.8004H23.4558C14.5721 23.8004 7.34489 16.5638 7.34489 7.66865V2.1172C7.34489 1.50019 7.84456 1 8.4606 1H14.0049C20.8099 1 26.6428 5.24655 29.0002 11.2321C31.3572 5.24655 37.1901 1 43.9954 1H49.5394C50.1554 1 50.6551 1.50019 50.6551 2.1172V7.66865C50.6551 16.5637 43.4279 23.8004 34.5442 23.8004H30.1159V29.9506C32.7853 30.1341 35.3611 30.9745 37.6249 32.4094C39.9504 33.8835 41.8577 35.9212 43.1734 38.3292ZM43.9954 3.23424C36.342 3.23424 30.1156 9.46877 30.1156 17.132V19.9862L42.2758 7.80986C42.7118 7.3738 43.4183 7.37365 43.854 7.80986C44.2897 8.24629 44.2897 8.95369 43.854 9.3899L31.6937 21.566H34.5442C42.1973 21.566 48.4237 15.3317 48.4237 7.6685V3.23424H43.9954ZM26.3063 21.5661L14.146 9.3899C13.7103 8.95362 13.7103 8.24622 14.146 7.81001C14.582 7.37388 15.2882 7.3738 15.7239 7.81001L27.8844 19.9861V17.1319C27.8844 9.46862 21.658 3.23424 14.0049 3.23424H9.5763V7.6685C9.5763 15.3317 15.8027 21.5661 23.4558 21.5661H26.3063ZM51.7402 53.3093C52.7657 53.3093 53.6832 52.8194 54.2576 51.9654C54.8203 51.1287 54.9278 50.1173 54.5522 49.1909C52.533 44.2076 47.7675 40.8012 42.4116 40.5128L41.6512 40.4917C40.3275 40.4917 39.018 40.6773 37.7597 41.0434C37.6559 41.0737 37.5511 41.0882 37.4482 41.0882C36.9643 41.0882 36.519 40.7708 36.3771 40.2824C36.2051 39.69 36.5455 39.0701 37.1372 38.8979C38.2457 38.5754 39.3876 38.3742 40.5447 38.2955C37.9773 34.4627 33.7017 32.1461 29.0002 32.1461C23.6764 32.1461 18.8972 35.1149 16.5277 39.8939C16.3488 40.2546 15.9899 40.491 15.5881 40.5126C10.2325 40.8011 5.46702 44.2075 3.4478 49.1908C3.07223 50.1173 3.17966 51.1287 3.74242 51.9654C4.3168 52.8194 5.2343 53.3093 6.25983 53.3093H51.7402Z" fill="#F7941E"/>
<path d="M32.9249 40.8194C33.443 40.4857 34.1335 40.6357 34.4668 41.1545C34.8001 41.6735 34.6504 42.3647 34.132 42.6983C33.9737 42.8003 33.8147 42.9073 33.6603 43.0162C33.4651 43.1535 33.2413 43.2194 33.0196 43.2194C32.6687 43.2194 32.3232 43.0541 32.1059 42.7445C31.7518 42.2398 31.8732 41.543 32.3773 41.1882C32.5568 41.062 32.741 40.9379 32.9249 40.8194Z" stroke="#F7941E" stroke-width="0.75"/>
<path fill-rule="evenodd" clip-rule="evenodd" d="M43.1734 38.3292C49.1254 38.8916 54.3579 42.7686 56.6199 48.3508C57.2696 49.9537 57.0782 51.7715 56.1084 53.2135C55.1272 54.6726 53.4942 55.5436 51.7402 55.5436H6.25983C4.50577 55.5436 2.87283 54.6726 1.89164 53.2135C0.921759 51.7715 0.730401 49.9537 1.38006 48.3508C3.64213 42.7686 8.87456 38.8916 14.8266 38.3292C16.142 35.9211 18.0499 33.8835 20.3754 32.4094C22.6392 30.9746 25.215 30.1341 27.8844 29.9506V23.8004H23.4558C14.5721 23.8004 7.34489 16.5638 7.34489 7.66865V2.1172C7.34489 1.50019 7.84456 1 8.4606 1H14.0049C20.8099 1 26.6428 5.24655 29.0002 11.2321C31.3572 5.24655 37.1901 1 43.9954 1H49.5394C50.1554 1 50.6551 1.50019 50.6551 2.1172V7.66865C50.6551 16.5637 43.4279 23.8004 34.5442 23.8004H30.1159V29.9506C32.7853 30.1341 35.3611 30.9745 37.6249 32.4094C39.9504 33.8835 41.8577 35.9212 43.1734 38.3292ZM43.9954 3.23424C36.342 3.23424 30.1156 9.46877 30.1156 17.132V19.9862L42.2758 7.80986C42.7118 7.3738 43.4183 7.37365 43.854 7.80986C44.2897 8.24629 44.2897 8.95369 43.854 9.3899L31.6937 21.566H34.5442C42.1973 21.566 48.4237 15.3317 48.4237 7.6685V3.23424H43.9954ZM26.3063 21.5661L14.146 9.3899C13.7103 8.95362 13.7103 8.24622 14.146 7.81001C14.582 7.37388 15.2882 7.3738 15.7239 7.81001L27.8844 19.9861V17.1319C27.8844 9.46862 21.658 3.23424 14.0049 3.23424H9.5763V7.6685C9.5763 15.3317 15.8027 21.5661 23.4558 21.5661H26.3063ZM51.7402 53.3093C52.7657 53.3093 53.6832 52.8194 54.2576 51.9654C54.8203 51.1287 54.9278 50.1173 54.5522 49.1909C52.533 44.2076 47.7675 40.8012 42.4116 40.5128L41.6512 40.4917C40.3275 40.4917 39.018 40.6773 37.7597 41.0434C37.6559 41.0737 37.5511 41.0882 37.4482 41.0882C36.9643 41.0882 36.519 40.7708 36.3771 40.2824C36.2051 39.69 36.5455 39.0701 37.1372 38.8979C38.2457 38.5754 39.3876 38.3742 40.5447 38.2955C37.9773 34.4627 33.7017 32.1461 29.0002 32.1461C23.6764 32.1461 18.8972 35.1149 16.5277 39.8939C16.3488 40.2546 15.9899 40.491 15.5881 40.5126C10.2325 40.8011 5.46702 44.2075 3.4478 49.1908C3.07223 50.1173 3.17966 51.1287 3.74242 51.9654C4.3168 52.8194 5.2343 53.3093 6.25983 53.3093H51.7402Z" stroke="#F7941E" stroke-width="0.75"/>
</svg>
