<svg width="55" height="61" viewBox="0 0 55 61" fill="none" xmlns="http://www.w3.org/2000/svg">
<path d="M30.0198 53.3294H29.9897C29.3452 53.4486 28.9106 54.0597 29.0156 54.7153C29.1206 55.2965 29.6301 55.6988 30.1995 55.6988C30.2744 55.6988 30.3345 55.6988 30.4094 55.6839C31.0688 55.5796 31.5034 54.9687 31.3984 54.313C31.2935 53.6573 30.6641 53.2251 30.0198 53.3294Z" fill="#F7941E"/>
<path d="M33.8259 52.1905C36.3135 51.3708 38.6213 50.1191 40.4946 48.5842C41.0044 48.167 41.7537 48.2414 42.1882 48.7481C42.6079 49.2548 42.533 50.0148 42.0234 50.432C39.9102 52.1457 37.3477 53.5465 34.5752 54.4555C34.4553 54.5003 34.3203 54.5152 34.2004 54.5152C33.6909 54.5152 33.2263 54.2022 33.0615 53.6955C32.8518 53.0697 33.1963 52.3991 33.8259 52.1905Z" fill="#F7941E"/>
<path fill-rule="evenodd" clip-rule="evenodd" d="M53.9277 34.0529C53.7979 32.0062 53.3936 30.0172 52.7002 28.1434C52.6858 28.0858 52.657 28.0281 52.6426 27.9849C52.6282 27.9416 52.6135 27.8984 52.5991 27.8696C52.5918 27.8479 52.5811 27.8227 52.5703 27.7975C52.5596 27.7723 52.5488 27.7471 52.5415 27.7254C52.0793 26.5291 51.5161 25.3905 50.8806 24.3239C50.8518 24.2086 50.8083 24.0789 50.7363 23.978C48.9744 21.0665 46.967 19.1928 45.5806 18.1406C44.5986 17.3911 43.6167 16.8001 42.678 16.411C43.7322 15.1714 44.1077 14.1049 44.1365 14.004C44.252 13.658 44.1943 13.2689 43.9775 12.9662C43.761 12.6635 43.4146 12.4906 43.0391 12.4906H43.0244C41.1038 12.4906 39.7319 12.087 38.4177 11.6978L38.4067 11.6947C36.1436 11.0328 33.9932 10.404 30.5471 12.4618C29.7239 10.2565 29.4641 7.51797 29.9983 5.97573C30.8359 3.56875 29.8396 2.09853 28.7419 1.57967C27.4712 0.974328 24.1987 0.396935 23 2.31393C22.0903 3.76656 22.5381 6.53329 23.0444 9.66348C23.1812 10.5087 23.322 11.3805 23.4419 12.26C20.8384 11.3698 18.7507 11.781 16.5647 12.2116L16.5391 12.2167C15.0227 12.5194 13.4485 12.822 11.47 12.7788C11.0657 12.7644 10.6902 12.9662 10.4736 13.2977C10.2568 13.6292 10.2136 14.0472 10.387 14.422L10.3921 14.4322C10.4607 14.5716 10.9724 15.6104 12.1777 16.7713C1.89526 22.0033 1 34.125 1 35.8834C1 41.8793 3.78711 48.0194 8.66846 52.7037C13.7517 57.6042 20.366 60.3139 27.2834 60.3139C30.8215 60.3139 34.302 59.6077 37.6235 58.224C40.7573 56.9124 43.6167 55.0675 46.1006 52.7326C51.1262 48.0194 54 41.8793 54 35.869C54 35.2636 53.9856 34.6582 53.9277 34.0529ZM17.0156 14.4364C19.4851 13.9463 21.3047 13.586 23.9619 14.9264C24.2363 15.9209 24.6118 17.0019 25.0737 18.0253C25.2615 18.4577 25.6948 18.7171 26.1282 18.7171C26.2869 18.7171 26.4458 18.6883 26.5901 18.6162C27.168 18.3568 27.4421 17.6793 27.1824 17.0884C26.7058 16.0362 26.3159 14.8687 26.0847 13.903C25.9272 13.072 25.7595 12.2517 25.5969 11.4566C24.8792 7.9493 24.2615 4.93063 25.0737 3.62637C25.5793 2.83364 27.4712 3.48226 27.76 3.62637C28.0198 3.74166 28.1499 4.28939 27.832 5.19741C26.8936 7.89272 27.6877 12.1014 29.002 14.6381C29.2329 15.2147 29.5217 15.8344 29.8684 16.4687C30.0706 16.8578 30.4749 17.0884 30.8938 17.0884C31.0815 17.0884 31.2549 17.0452 31.428 16.9587C31.9912 16.656 32.208 15.9642 31.9045 15.4021C31.8074 15.2177 31.7166 15.0333 31.6282 14.8534C31.5852 14.766 31.5427 14.6797 31.5002 14.5949C34.2153 12.8653 35.6016 13.2689 37.7678 13.9175L37.895 13.9547C38.8057 14.2207 39.8638 14.5299 41.1328 14.6814C40.8149 15.0994 40.3672 15.5606 39.7896 16.0074C39.7319 16.0362 39.6885 16.0795 39.6453 16.1227C38.562 16.9154 37.0312 17.6505 34.8506 17.9532C34.4319 18.0109 34.0852 18.2992 33.9265 18.6883C33.782 19.0775 33.8542 19.5243 34.1287 19.8413C35.0962 20.9656 35.3418 23.632 34.793 25.8084C32.7278 24.4968 30.7783 23.2285 29.4351 20.8791C29.2185 20.5044 28.843 20.3026 28.4243 20.3026C28.3088 20.3026 28.1787 20.317 28.0632 20.3603C25.8394 21.0953 22.8643 22.4934 20.7559 24.2663C20.2937 22.5943 20.5103 21.3115 21.0879 19.4378C21.1892 19.1207 21.1458 18.7603 20.958 18.4865C20.7703 18.1982 20.4814 18.0109 20.1494 17.9676C18.0408 17.6649 16.4668 17.0019 15.3115 16.2813C15.2537 16.238 15.1958 16.1948 15.1238 16.166C14.5315 15.7768 14.0549 15.3733 13.6794 14.9985C14.7844 14.8591 15.7549 14.6751 16.6506 14.5054L17.0156 14.4364ZM44.5264 51.0606C39.7607 55.5431 33.6377 58.0078 27.2834 58.0078C20.9724 58.0078 14.936 55.5431 10.2715 51.0462C5.85229 46.7798 3.31055 41.2595 3.31055 35.8834C3.31055 33.2025 5.52026 22.3925 14.3728 18.3568C15.4702 19.0054 16.8423 19.5963 18.532 19.9711C17.9832 22.2052 18.0408 24.0645 19.2395 26.7741C19.3984 27.1345 19.7449 27.3939 20.1348 27.4516C20.5249 27.5092 20.9292 27.3507 21.1892 27.048C22.5754 25.3617 25.4927 23.7618 27.9478 22.8249C29.5652 25.2175 31.688 26.5579 33.7532 27.8551C33.8479 27.9168 33.9438 27.9785 34.0405 28.0402L34.26 28.1805L34.5071 28.338C34.5933 28.3933 34.679 28.4485 34.7639 28.5037C34.9517 28.6334 35.1685 28.6911 35.3994 28.6911C35.4573 28.6911 35.52 28.6864 35.582 28.677C35.6282 28.6699 35.6741 28.6602 35.7173 28.6479C36.0349 28.5614 36.3093 28.3308 36.4536 28.0281C37.6089 25.549 37.6812 22.1907 36.8003 19.899C38.4321 19.481 39.7175 18.8612 40.7283 18.1694C42.0713 18.4433 44.2231 19.6828 46.2883 21.8736C46.3044 21.9278 46.3269 21.9819 46.3545 22.0352C46.4006 22.124 46.4617 22.2106 46.5337 22.2916C48.2668 24.1942 49.6243 26.4426 50.5486 28.965C50.8374 29.7577 51.0684 30.5648 51.2561 31.4008C51.2561 31.4369 51.2598 31.4729 51.2632 31.5089L51.2661 31.5402C51.2686 31.5658 51.2705 31.5914 51.2705 31.617C51.4438 32.5106 51.5593 33.3899 51.6316 34.2547C51.6604 34.7735 51.675 35.3068 51.6604 35.8401H51.6895V35.8978C51.6895 41.2451 49.0754 46.7798 44.5264 51.0606Z" fill="#F7941E"/>
<path d="M30.0198 53.3294H29.9897C29.3452 53.4486 28.9106 54.0597 29.0156 54.7153C29.1206 55.2965 29.6301 55.6988 30.1995 55.6988C30.2744 55.6988 30.3345 55.6988 30.4094 55.6839C31.0688 55.5796 31.5034 54.9687 31.3984 54.313C31.2935 53.6573 30.6641 53.2251 30.0198 53.3294Z" stroke="#F7941E"/>
<path d="M33.8259 52.1905C36.3135 51.3708 38.6213 50.1191 40.4946 48.5842C41.0044 48.167 41.7537 48.2414 42.1882 48.7481C42.6079 49.2548 42.533 50.0148 42.0234 50.432C39.9102 52.1457 37.3477 53.5465 34.5752 54.4555C34.4553 54.5003 34.3203 54.5152 34.2004 54.5152C33.6909 54.5152 33.2263 54.2022 33.0615 53.6955C32.8518 53.0697 33.1963 52.3991 33.8259 52.1905Z" stroke="#F7941E"/>
<path fill-rule="evenodd" clip-rule="evenodd" d="M53.9277 34.0529C53.7979 32.0062 53.3936 30.0172 52.7002 28.1434C52.6858 28.0858 52.657 28.0281 52.6426 27.9849C52.6282 27.9416 52.6135 27.8984 52.5991 27.8696C52.5918 27.8479 52.5811 27.8227 52.5703 27.7975C52.5596 27.7723 52.5488 27.7471 52.5415 27.7254C52.0793 26.5291 51.5161 25.3905 50.8806 24.3239C50.8518 24.2086 50.8083 24.0789 50.7363 23.978C48.9744 21.0665 46.967 19.1928 45.5806 18.1406C44.5986 17.3911 43.6167 16.8001 42.678 16.411C43.7322 15.1714 44.1077 14.1049 44.1365 14.004C44.252 13.658 44.1943 13.2689 43.9775 12.9662C43.761 12.6635 43.4146 12.4906 43.0391 12.4906H43.0244C41.1038 12.4906 39.7319 12.087 38.4177 11.6978L38.4067 11.6947C36.1436 11.0328 33.9932 10.404 30.5471 12.4618C29.7239 10.2565 29.4641 7.51797 29.9983 5.97573C30.8359 3.56875 29.8396 2.09853 28.7419 1.57967C27.4712 0.974328 24.1987 0.396935 23 2.31393C22.0903 3.76656 22.5381 6.53329 23.0444 9.66348C23.1812 10.5087 23.322 11.3805 23.4419 12.26C20.8384 11.3698 18.7507 11.781 16.5647 12.2116L16.5391 12.2167C15.0227 12.5194 13.4485 12.822 11.47 12.7788C11.0657 12.7644 10.6902 12.9662 10.4736 13.2977C10.2568 13.6292 10.2136 14.0472 10.387 14.422L10.3921 14.4322C10.4607 14.5716 10.9724 15.6104 12.1777 16.7713C1.89526 22.0033 1 34.125 1 35.8834C1 41.8793 3.78711 48.0194 8.66846 52.7037C13.7517 57.6042 20.366 60.3139 27.2834 60.3139C30.8215 60.3139 34.302 59.6077 37.6235 58.224C40.7573 56.9124 43.6167 55.0675 46.1006 52.7326C51.1262 48.0194 54 41.8793 54 35.869C54 35.2636 53.9856 34.6582 53.9277 34.0529ZM17.0156 14.4364C19.4851 13.9463 21.3047 13.586 23.9619 14.9264C24.2363 15.9209 24.6118 17.0019 25.0737 18.0253C25.2615 18.4577 25.6948 18.7171 26.1282 18.7171C26.2869 18.7171 26.4458 18.6883 26.5901 18.6162C27.168 18.3568 27.4421 17.6793 27.1824 17.0884C26.7058 16.0362 26.3159 14.8687 26.0847 13.903C25.9272 13.072 25.7595 12.2517 25.5969 11.4566C24.8792 7.9493 24.2615 4.93063 25.0737 3.62637C25.5793 2.83364 27.4712 3.48226 27.76 3.62637C28.0198 3.74166 28.1499 4.28939 27.832 5.19741C26.8936 7.89272 27.6877 12.1014 29.002 14.6381C29.2329 15.2147 29.5217 15.8344 29.8684 16.4687C30.0706 16.8578 30.4749 17.0884 30.8938 17.0884C31.0815 17.0884 31.2549 17.0452 31.428 16.9587C31.9912 16.656 32.208 15.9642 31.9045 15.4021C31.8074 15.2177 31.7166 15.0333 31.6282 14.8534C31.5852 14.766 31.5427 14.6797 31.5002 14.5949C34.2153 12.8653 35.6016 13.2689 37.7678 13.9175L37.895 13.9547C38.8057 14.2207 39.8638 14.5299 41.1328 14.6814C40.8149 15.0994 40.3672 15.5606 39.7896 16.0074C39.7319 16.0362 39.6885 16.0795 39.6453 16.1227C38.562 16.9154 37.0312 17.6505 34.8506 17.9532C34.4319 18.0109 34.0852 18.2992 33.9265 18.6883C33.782 19.0775 33.8542 19.5243 34.1287 19.8413C35.0962 20.9656 35.3418 23.632 34.793 25.8084C32.7278 24.4968 30.7783 23.2285 29.4351 20.8791C29.2185 20.5044 28.843 20.3026 28.4243 20.3026C28.3088 20.3026 28.1787 20.317 28.0632 20.3603C25.8394 21.0953 22.8643 22.4934 20.7559 24.2663C20.2937 22.5943 20.5103 21.3115 21.0879 19.4378C21.1892 19.1207 21.1458 18.7603 20.958 18.4865C20.7703 18.1982 20.4814 18.0109 20.1494 17.9676C18.0408 17.6649 16.4668 17.0019 15.3115 16.2813C15.2537 16.238 15.1958 16.1948 15.1238 16.166C14.5315 15.7768 14.0549 15.3733 13.6794 14.9985C14.7844 14.8591 15.7549 14.6751 16.6506 14.5054L17.0156 14.4364ZM44.5264 51.0606C39.7607 55.5431 33.6377 58.0078 27.2834 58.0078C20.9724 58.0078 14.936 55.5431 10.2715 51.0462C5.85229 46.7798 3.31055 41.2595 3.31055 35.8834C3.31055 33.2025 5.52026 22.3925 14.3728 18.3568C15.4702 19.0054 16.8423 19.5963 18.532 19.9711C17.9832 22.2052 18.0408 24.0645 19.2395 26.7741C19.3984 27.1345 19.7449 27.3939 20.1348 27.4516C20.5249 27.5092 20.9292 27.3507 21.1892 27.048C22.5754 25.3617 25.4927 23.7618 27.9478 22.8249C29.5652 25.2175 31.688 26.5579 33.7532 27.8551C33.8479 27.9168 33.9438 27.9785 34.0405 28.0402L34.26 28.1805L34.5071 28.338C34.5933 28.3933 34.679 28.4485 34.7639 28.5037C34.9517 28.6334 35.1685 28.6911 35.3994 28.6911C35.4573 28.6911 35.52 28.6864 35.582 28.677C35.6282 28.6699 35.6741 28.6602 35.7173 28.6479C36.0349 28.5614 36.3093 28.3308 36.4536 28.0281C37.6089 25.549 37.6812 22.1907 36.8003 19.899C38.4321 19.481 39.7175 18.8612 40.7283 18.1694C42.0713 18.4433 44.2231 19.6828 46.2883 21.8736C46.3044 21.9278 46.3269 21.9819 46.3545 22.0352C46.4006 22.124 46.4617 22.2106 46.5337 22.2916C48.2668 24.1942 49.6243 26.4426 50.5486 28.965C50.8374 29.7577 51.0684 30.5648 51.2561 31.4008C51.2561 31.4369 51.2598 31.4729 51.2632 31.5089L51.2661 31.5402C51.2686 31.5658 51.2705 31.5914 51.2705 31.617C51.4438 32.5106 51.5593 33.3899 51.6316 34.2547C51.6604 34.7735 51.675 35.3068 51.6604 35.8401H51.6895V35.8978C51.6895 41.2451 49.0754 46.7798 44.5264 51.0606Z" stroke="#F7941E"/>
</svg>
