<svg width="24" height="24" viewBox="0 0 24 24" fill="none" xmlns="http://www.w3.org/2000/svg">
<circle opacity="0.2" cx="12" cy="12" r="11.5" fill="#F2F2F2" stroke="#F2F2F2"/>
<path d="M12.5 6C12.5 5.72386 12.2761 5.5 12 5.5C11.7239 5.5 11.5 5.72386 11.5 6L12.5 6ZM11.6464 18.3536C11.8417 18.5488 12.1583 18.5488 12.3536 18.3536L15.5355 15.1716C15.7308 14.9763 15.7308 14.6597 15.5355 14.4645C15.3403 14.2692 15.0237 14.2692 14.8284 14.4645L12 17.2929L9.17157 14.4645C8.97631 14.2692 8.65973 14.2692 8.46447 14.4645C8.2692 14.6597 8.2692 14.9763 8.46447 15.1716L11.6464 18.3536ZM11.5 6L11.5 18L12.5 18L12.5 6L11.5 6Z" fill="#F2F2F2"/>
</svg>
